<svg width="59" height="23" viewBox="0 0 59 23" fill="none" xmlns="http://www.w3.org/2000/svg">
<path d="M11.1086 18.216C9.71659 18.216 8.82859 17.304 8.44459 15.48L7.89259 12.816C7.36459 10.248 6.83659 9.696 4.86859 9.696C4.41259 9.696 4.14859 9.96 4.14859 10.32V16.32C4.14859 16.992 4.31659 17.16 5.20459 17.304L6.09259 17.448C6.26059 17.472 6.35659 17.568 6.35659 17.712C6.35659 17.904 6.23659 18 5.99659 18H1.12459C0.884594 18 0.764594 17.904 0.764594 17.736C0.764594 17.568 0.860594 17.496 1.07659 17.448L1.62859 17.352C2.30059 17.232 2.44459 17.088 2.44459 16.416V2.304C2.44459 1.632 2.30059 1.488 1.62859 1.368L1.07659 1.272C0.860594 1.224 0.764594 1.152 0.764594 0.983999C0.764594 0.816 0.884594 0.719999 1.12459 0.719999H5.99659C8.82859 0.719999 10.8686 2.52 10.8686 5.04C10.8686 7.056 9.50059 8.808 7.65259 9.48C7.41259 9.552 7.41259 9.72 7.62859 9.816C8.66059 10.296 9.21259 11.112 9.52459 12.552L10.0526 15C10.4126 16.656 10.8446 17.304 11.5886 17.304C11.8286 17.304 11.9966 17.256 12.3326 17.016C12.5966 16.848 12.8606 16.944 12.8606 17.208C12.8606 17.76 12.0446 18.216 11.1086 18.216ZM5.75659 9.096C7.91659 9.096 9.06859 7.512 9.06859 5.088C9.06859 2.736 7.70059 1.32 5.42059 1.32C4.60459 1.32 4.14859 1.608 4.14859 2.28V7.776C4.14859 8.688 4.65259 9.096 5.75659 9.096ZM15.0212 3.48C14.3492 3.48 13.8212 2.952 13.8212 2.208C13.8212 1.464 14.3492 0.959999 15.0212 0.959999C15.6932 0.959999 16.1972 1.464 16.1972 2.208C16.1972 2.952 15.6932 3.48 15.0212 3.48ZM13.0052 18C12.7652 18 12.6452 17.904 12.6452 17.736C12.6452 17.592 12.7412 17.496 12.9572 17.448L13.2452 17.4C14.0372 17.28 14.1812 17.064 14.1812 16.392V8.328C14.1812 7.752 14.0372 7.608 13.5812 7.536L13.0772 7.464C12.8372 7.44 12.7652 7.344 12.7652 7.2C12.7652 7.056 12.8852 6.984 13.1492 6.936C14.1332 6.792 14.6612 6.432 15.2372 5.904C15.3812 5.76 15.4772 5.688 15.5972 5.688C15.7412 5.688 15.8132 5.784 15.8132 5.976V16.392C15.8132 17.064 15.9572 17.304 16.5092 17.376L17.1092 17.448C17.2772 17.472 17.3732 17.568 17.3732 17.712C17.3732 17.904 17.2532 18 17.0132 18H13.0052ZM21.9489 18.216C19.8369 18.216 18.1809 15.984 18.1809 12.336C18.1809 8.256 20.1969 5.616 22.8129 5.616C23.5809 5.616 24.0849 5.736 24.5409 6.048C24.7089 6.168 24.7809 6.312 24.7809 6.576L24.8289 9.504C24.8289 9.744 24.6849 9.864 24.5409 9.864C24.3729 9.864 24.2529 9.768 24.2049 9.552C23.5329 6.912 22.9809 6.24 22.1649 6.24C21.2049 6.24 19.9569 7.8 19.9569 11.832C19.9569 15.264 20.9169 16.992 22.3329 16.992C23.4609 16.992 24.1569 16.224 24.7089 13.776C24.7569 13.608 24.8289 13.512 24.9969 13.512C25.1889 13.512 25.2609 13.704 25.2129 13.992C24.6609 17.376 23.5329 18.216 21.9489 18.216ZM26.4097 18C26.2417 18 26.1217 17.88 26.1217 17.736C26.1217 17.592 26.2177 17.472 26.3857 17.448L26.7217 17.4C27.3937 17.304 27.5377 17.064 27.5377 16.392V2.64C27.5377 2.064 27.3937 1.92 26.9377 1.848L26.4337 1.776C26.2657 1.752 26.1697 1.632 26.1697 1.488C26.1697 1.344 26.2657 1.224 26.4337 1.2C27.3217 1.008 27.9217 0.743999 28.3297 0.48C28.5937 0.311999 28.7617 0.24 28.9057 0.24C29.0737 0.24 29.1697 0.36 29.1697 0.623999V10.68C29.1697 11.016 29.5057 11.112 29.7697 10.824L32.5777 7.8C33.2497 7.08 33.0817 6.528 32.4337 6.408L31.8817 6.312C31.6657 6.264 31.5697 6.168 31.5697 6C31.5697 5.856 31.6897 5.76 31.9057 5.76H36.0337C36.2497 5.76 36.3697 5.856 36.3697 6.024C36.3697 6.168 36.2977 6.288 36.0577 6.312L35.8417 6.336C35.0977 6.408 34.4257 6.864 33.4177 7.92L31.9297 9.504C31.5697 9.888 31.5217 10.248 31.6897 10.584L34.7137 16.392C35.0497 17.04 35.4337 17.28 36.0577 17.4L36.2977 17.448C36.4897 17.496 36.5857 17.568 36.5857 17.736C36.5857 17.904 36.4657 18 36.2497 18H32.0737C31.8577 18 31.7377 17.88 31.7377 17.736C31.7377 17.592 31.8577 17.472 32.0497 17.448L32.4577 17.4C33.0577 17.328 33.1777 16.896 32.8417 16.224L30.5617 11.784C30.3937 11.472 30.0577 11.424 29.7937 11.688L29.5297 11.952C29.2417 12.24 29.1697 12.504 29.1697 12.864V16.392C29.1697 17.064 29.3137 17.304 29.9857 17.376L30.6337 17.448C30.8017 17.472 30.8977 17.568 30.8977 17.736C30.8977 17.904 30.7777 18 30.6097 18H26.4097ZM37.3397 22.92C36.4757 22.92 35.9237 22.224 35.9237 21.456C35.9237 20.856 36.2837 20.376 36.9077 20.376C37.9397 20.376 37.5797 21.48 38.1317 21.48C38.4677 21.48 38.7077 21.144 39.2117 19.536C39.6677 18.12 39.6677 17.448 39.1157 15.696L36.4997 7.368C36.2597 6.6 36.1157 6.48 35.6837 6.384L35.3237 6.312C35.1077 6.264 35.0117 6.168 35.0117 6C35.0117 5.856 35.1317 5.76 35.3477 5.76H39.3077C39.5237 5.76 39.6437 5.856 39.6437 6C39.6437 6.168 39.5237 6.288 39.3317 6.312L38.9477 6.36C38.1797 6.456 38.0117 6.672 38.2277 7.368L40.3397 14.4C40.4357 14.712 40.6997 14.712 40.7957 14.4L42.8357 7.8C43.0997 6.936 43.0517 6.552 42.2597 6.408L41.7557 6.312C41.5637 6.264 41.4437 6.168 41.4437 6C41.4437 5.856 41.5637 5.76 41.7797 5.76H44.8277C45.0677 5.76 45.1637 5.88 45.1637 6.024C45.1637 6.168 45.0917 6.288 44.8757 6.36L44.6597 6.432C44.1797 6.6 43.8917 6.936 43.5557 7.944L39.9797 19.104C38.8997 22.488 38.3237 22.92 37.3397 22.92ZM46.6845 8.328C46.5885 8.328 46.5165 8.28 46.5165 8.208C46.5165 8.16 46.5645 8.112 46.6605 8.088L47.1405 8.016C47.4045 7.968 47.5005 7.896 47.5005 7.608V1.464C47.5005 1.272 47.4285 1.2 47.1645 1.2C46.6365 1.2 46.1565 1.608 45.9645 2.616L45.9165 2.856C45.8685 3.048 45.8205 3.144 45.7005 3.144C45.6045 3.144 45.5565 3.048 45.5565 2.928L45.6525 0.792C45.6525 0.647999 45.7245 0.551999 45.8445 0.551999C45.9885 0.551999 46.0125 0.719999 46.6845 0.719999H49.3005C49.9725 0.719999 49.9965 0.551999 50.1405 0.551999C50.2605 0.551999 50.3325 0.647999 50.3325 0.792L50.4285 2.928C50.4285 3.048 50.3805 3.144 50.2845 3.144C50.1645 3.144 50.1165 3.048 50.0685 2.856L50.0205 2.616C49.8285 1.608 49.3485 1.2 48.8205 1.2C48.5565 1.2 48.4845 1.272 48.4845 1.464V7.608C48.4845 7.896 48.5805 7.968 48.8445 8.016L49.3245 8.088C49.4205 8.112 49.4685 8.16 49.4685 8.208C49.4685 8.28 49.4205 8.328 49.3005 8.328H46.6845ZM50.8365 8.328C50.7165 8.328 50.6685 8.28 50.6685 8.208C50.6685 8.16 50.7165 8.112 50.8125 8.088L50.9565 8.064C51.3165 8.016 51.4125 7.824 51.4365 7.416L51.6525 1.416C51.6525 1.104 51.5805 1.008 51.2685 0.983999L51.0285 0.959999C50.9325 0.959999 50.8845 0.887999 50.8845 0.816C50.8845 0.743999 50.9325 0.719999 51.0525 0.719999H52.6845C52.9005 0.719999 53.0205 0.816 53.0685 1.032L54.2445 6.312C54.2685 6.408 54.3405 6.408 54.3645 6.312L55.7085 0.983999C55.7565 0.792 55.8285 0.719999 56.0445 0.719999H57.6525C57.7485 0.719999 57.7965 0.743999 57.7965 0.816C57.7965 0.887999 57.7725 0.959999 57.6765 0.959999L57.4125 0.983999C57.1245 1.008 57.0525 1.104 57.0525 1.416L57.2685 7.632C57.2685 7.92 57.3405 7.992 57.6285 8.04L57.8685 8.088C57.9645 8.112 58.0125 8.16 58.0125 8.208C58.0125 8.28 57.9645 8.328 57.8445 8.328H55.7085C55.5885 8.328 55.5405 8.28 55.5405 8.208C55.5405 8.16 55.5885 8.112 55.6845 8.088L55.9245 8.04C56.2125 7.992 56.2845 7.92 56.2845 7.632L56.0925 1.584C56.0925 1.488 56.0205 1.464 55.9965 1.56L54.3885 7.848C54.2925 8.184 54.1485 8.232 54.0285 8.232C53.9085 8.232 53.7885 8.184 53.7165 7.848L52.2045 1.56C52.1805 1.464 52.1085 1.488 52.1085 1.584L51.8925 7.416C51.8685 7.824 52.0125 8.016 52.3485 8.064L52.4925 8.088C52.5885 8.112 52.6365 8.16 52.6365 8.208C52.6365 8.28 52.5645 8.328 52.4685 8.328H50.8365Z" fill="url(#paint0_linear_2470_103)"/>
<defs>
<linearGradient id="paint0_linear_2470_103" x1="0" y1="10" x2="59" y2="10" gradientUnits="userSpaceOnUse">
<stop stop-color="#F4F4F4"/>
<stop offset="1" stop-color="#F4F4F4" stop-opacity="0.7"/>
</linearGradient>
</defs>
</svg>
